<?xml version="1.0" standalone="no"?>
<!DOCTYPE svg PUBLIC "-//W3C//DTD SVG 20010904//EN"
 "http://www.w3.org/TR/2001/REC-SVG-20010904/DTD/svg10.dtd">
<svg version="1.0" xmlns="http://www.w3.org/2000/svg"
 width="260.000000pt" height="260.000000pt" viewBox="0 0 260.000000 260.000000"
 preserveAspectRatio="xMidYMid meet">
<metadata>
Created by potrace 1.11, written by Peter Selinger 2001-2013
</metadata>
<g transform="translate(0.000000,260.000000) scale(0.100000,-0.100000)"
fill="#000000" stroke="none">
<path d="M1150 2593 c-271 -41 -490 -135 -675 -290 -86 -71 -183 -174 -232
-247 -15 -22 -31 -42 -35 -44 -5 -2 -8 -7 -8 -12 0 -4 -17 -39 -39 -77 -111
-197 -162 -409 -156 -653 2 -80 6 -158 10 -175 21 -99 28 -128 51 -198 74
-232 226 -455 409 -600 81 -64 74 -59 125 -92 115 -77 289 -146 451 -181 117
-25 381 -25 499 0 266 57 500 184 683 371 44 45 149 179 176 226 78 132 149
318 167 434 3 22 10 60 14 85 9 49 5 300 -5 365 -12 68 -56 230 -66 240 -5 5
-9 16 -9 25 -1 41 -121 250 -205 355 -69 86 -220 222 -285 255 -14 7 -27 16
-30 21 -11 16 -209 109 -285 133 -135 43 -230 58 -385 61 -80 1 -156 0 -170
-2z"/>
</g>
</svg>
